<svg id="Capa_1" enable-background="new 0 0 512 512" height="512" viewBox="0 0 512 512" width="512" xmlns="http://www.w3.org/2000/svg"><g><g><g><path d="m433.429 434.103v67.595c0 5.69-4.612 10.302-10.302 10.302h-334.254c-5.69 0-10.302-4.612-10.302-10.302v-67.596c0-66.507 53.915-120.422 120.422-120.422h114.014c66.507.001 120.422 53.916 120.422 120.423z" fill="#433f43"/><g><path d="m248.274 512v-135.572c0-4.267 3.459-7.726 7.726-7.726s7.726 3.459 7.726 7.726v135.572z" fill="#353435"/></g><path d="m313.01 313.68h-114.02c-26.228 0-50.499 8.396-70.279 22.633-.35 7.294 1.257 14.68 4.842 21.397l34.511 64.417c5.244 9.807 15.422 15.906 26.548 15.906 8.128-.01 15.741-3.194 21.459-9.014l23.198-23.633c1.567-1.596 3.984-1.999 5.984-.997l10.747 5.386 10.748-5.386c1.999-1.002 4.417-.599 5.983.997l23.219 23.654c5.697 5.8 13.32 8.994 21.438 8.994 11.126 0 21.304-6.099 26.537-15.896l32.409-60.495c15.215 20.162 24.24 45.255 24.24 72.456v77.901h22.551c5.69 0 10.302-4.612 10.302-10.302v-67.6c.001-66.498-53.908-120.418-120.417-120.418z" fill="#353435"/><g><path d="m263.726 376.428v29.473l-7.726 3.874-7.726-3.873v-29.473c0-4.265 3.461-7.726 7.726-7.726 4.265-.001 7.726 3.46 7.726 7.725z" fill="#2b2b2b"/></g><g><path d="m316.513 282.259-17.084-11.797h-86.857l-17.084 11.797c-4.142 51.06 60.512 70.869 60.512 70.869s64.654-19.809 60.513-70.869z" fill="#593637"/></g></g><g><path d="m363.667 512v-75.976c0-4.267 3.459-7.726 7.726-7.726s7.726 3.459 7.726 7.726v75.976z" fill="#353435"/></g><g><path d="m132.877 512v-75.976c0-4.267 3.459-7.726 7.726-7.726s7.726 3.459 7.726 7.726v75.976z" fill="#353435"/></g><g><g><g><g><g><g><g><g><g><g><g><g><path d="m374.28 161.636v-43.357c0-31.576-12.301-61.276-34.644-83.635-22.34-22.341-52.042-34.644-83.635-34.644-65.226 0-118.291 53.06-118.291 118.279v43.357z" fill="#433f43"/><path d="m374.275 118.275v43.36h-30.298v-43.36c0-31.575-12.3-61.275-34.645-83.63-18.718-18.729-42.619-30.401-68.476-33.687 4.955-.628 10.014-.958 15.144-.958 31.596 0 61.296 12.3 83.64 34.645 22.335 22.355 34.635 52.055 34.635 83.63z" fill="#353435"/><g><g><g><g><g><circle cx="355.29" cy="176.481" fill="#ba5d4f" r="31.363"/></g><g><circle cx="156.71" cy="176.481" fill="#ba5d4f" r="31.363"/></g></g></g></g></g><g><g><path d="m281.023 282.645v39.363c0 13.815-11.208 25.023-25.023 25.023-13.825 0-25.033-11.208-25.033-25.023v-39.363z" fill="#c86f5c"/></g><path d="m281.023 282.645v21.696c-7.768 2.029-15.896 3.121-24.261 3.183h-.752c-8.643 0-17.029-1.082-25.044-3.132v-21.747z" fill="#ba5d4f"/></g><path d="m219.832 69.873c-25.512 0-47.721 17.914-52.596 42.956-1.094 5.617-1.667 11.42-1.667 17.358v66.445c0 50.169 40.854 90.782 91.107 90.42 49.867-.374 89.744-41.687 89.744-91.554v-65.311c0-5.938-.573-11.742-1.668-17.36-4.878-25.041-27.085-42.954-52.596-42.954z" fill="#c86f5c"/></g></g></g></g></g></g></g></g></g></g><g><g><path d="m255.049 240.984c-7.15 0-13.899-2.385-19.003-6.715-3.254-2.761-3.654-7.636-.893-10.89 2.762-3.253 7.636-3.654 10.89-.893 2.281 1.936 5.564 3.046 9.006 3.046s6.725-1.11 9.006-3.046c3.254-2.76 8.13-2.36 10.89.893 2.761 3.254 2.361 8.129-.893 10.89-5.104 4.331-11.853 6.715-19.003 6.715z" fill="#ba5d4f"/></g><g><g><g id="XMLID_259_"><path d="m295.891 176.489c-.016 0-.031 0-.046 0-4.267-.025-7.75-3.505-7.725-7.772.025-4.252 3.437-7.682 7.682-7.682h.046l.087.001c4.267.025 7.706 3.504 7.682 7.771-.025 4.252-3.48 7.682-7.726 7.682z" fill="#433f43"/></g></g><g><g id="XMLID_257_"><path d="m216.198 176.489c-4.267 0-7.769-3.459-7.769-7.726s3.417-7.726 7.684-7.726h.086c4.267 0 7.726 3.459 7.726 7.726s-3.46 7.726-7.727 7.726z" fill="#433f43"/></g></g></g><g><path d="m255.057 210.256c-.468 0-.942-.043-1.42-.131-9.924-1.844-16.528-11.108-15.035-21.091l4.127-27.587c.631-4.22 4.565-7.126 8.784-6.498 4.22.631 7.13 4.564 6.498 8.784l-4.127 27.588c-.256 1.71.875 3.296 2.574 3.612 4.195.779 6.965 4.812 6.186 9.008-.689 3.716-3.936 6.315-7.587 6.315z" fill="#ba5d4f"/></g></g></g></g></g><path d="m360.285 347.975-34.521 64.438c-3.018 5.645-10.642 6.737-15.133 2.174l-33.715-34.346c-1.567-1.596-3.985-1.999-5.985-.996l-14.931 7.485v-33.602c0-9.614 6.526-18.099 15.883-20.305 42.762-10.08 44.63-50.564 44.63-50.564l42.65 44.401c4.306 6.346 4.738 14.557 1.122 21.315z" fill="#845152"/><path d="m360.285 347.975-34.521 64.438c-3.018 5.645-10.642 6.737-15.133 2.174l-8.149-8.293 29.484-55.032c3.616-6.758 3.183-14.968-1.123-21.314l-22.262-23.179c7.376-12.537 7.932-24.508 7.932-24.508l42.65 44.401c4.306 6.344 4.738 14.555 1.122 21.313z" fill="#704545"/><path d="m256 349.112v37.618l-14.93-7.486c-2-1.003-4.418-.6-5.985.996l-33.715 34.346c-4.492 4.564-12.115 3.472-15.133-2.174l-34.521-64.438c-3.616-6.758-3.183-14.969 1.123-21.314l42.65-44.401s1.954 42.348 47.628 51.197c7.486 1.451 12.883 8.029 12.883 15.656z" fill="#845152"/><g><path d="m256 349.108v37.622l-7.726-3.874v-47.419c4.687 2.823 7.726 7.953 7.726 13.671z" fill="#704545"/></g><g><path d="m263.726 336.838v46.018l-7.726 3.874v-33.605c0-6.459 2.946-12.413 7.726-16.287z" fill="#704545"/></g><g><g><path d="m167.709 467.902h46.395v44.098h-46.395z" fill="#554e55"/><path d="m201.924 482.093h-22.036c-8.534 0-15.453-6.918-15.453-15.453v-7.778c0-2.845 2.306-5.151 5.151-5.151h42.639c2.845 0 5.151 2.306 5.151 5.151v7.778c.001 8.534-6.917 15.453-15.452 15.453z" fill="#845152"/></g><g><path d="m297.896 467.902h46.395v44.098h-46.395z" fill="#554e55"/><path d="m332.111 482.093h-22.036c-8.534 0-15.453-6.918-15.453-15.453v-7.778c0-2.845 2.306-5.151 5.151-5.151h42.639c2.845 0 5.151 2.306 5.151 5.151v7.778c.001 8.534-6.918 15.453-15.452 15.453z" fill="#845152"/></g></g><g><g><g id="XMLID_262_"><path d="m313.26 388.931c-4.267 0-7.77-3.459-7.77-7.726s3.416-7.726 7.683-7.726h.087c4.267 0 7.726 3.459 7.726 7.726s-3.459 7.726-7.726 7.726z" fill="#663e3e"/></g></g><g><g id="XMLID_313_"><path d="m198.827 388.931c-4.267 0-7.77-3.459-7.77-7.726s3.416-7.726 7.683-7.726h.087c4.267 0 7.726 3.459 7.726 7.726s-3.459 7.726-7.726 7.726z" fill="#704545"/></g></g></g></g></svg>